HIERARCHY
ROOT Hips
{
	OFFSET 0.000000 0.000000 0.000000
	CHANNELS 6 Xposition Yposition Zposition Xrotation Yrotation Zrotation
	JOINT LeftUpLeg_virtual
	{
		OFFSET 0.000000 0.000000 0.000000
		CHANNELS 3 Xrotation Yrotation Zrotation
		JOINT LeftUpLeg
		{
			OFFSET 10.205400 -3.823500 0.155100
			CHANNELS 3 Xrotation Yrotation Zrotation
			JOINT LeftLeg
			{
				OFFSET 0.708757 -12.982077 0.567790
				CHANNELS 3 Xrotation Yrotation Zrotation
				JOINT LeftFoot
				{
					OFFSET -0.708756 -10.717838 -2.184338
					CHANNELS 3 Xrotation Yrotation Zrotation
					JOINT LeftToeBase
					{
						OFFSET 0.108149 -7.191104 7.560241
						CHANNELS 3 Xrotation Yrotation Zrotation
						JOINT LeftToe_End
						{
							OFFSET 0.070230 0.081724 4.490308
							CHANNELS 3 Xrotation Yrotation Zrotation
							End Site
							{
								OFFSET 0 0 0
							}
						}
					}
				}
			}
		}
	}
	JOINT RightUpLeg_virtual
	{
		OFFSET 0.000000 0.000000 0.000000
		CHANNELS 3 Xrotation Yrotation Zrotation
		JOINT RightUpLeg
		{
			OFFSET -10.205400 -3.823500 0.005500
			CHANNELS 3 Xrotation Yrotation Zrotation
			JOINT RightLeg
			{
				OFFSET -0.708756 -12.982134 0.610632
				CHANNELS 3 Xrotation Yrotation Zrotation
				JOINT RightFoot
				{
					OFFSET 0.708754 -10.717769 -1.945823
					CHANNELS 3 Xrotation Yrotation Zrotation
					JOINT RightToeBase
					{
						OFFSET -0.108140 -7.191069 7.372968
						CHANNELS 3 Xrotation Yrotation Zrotation
						JOINT RightToe_End
						{
							OFFSET -0.070227 0.081735 4.479403
							CHANNELS 3 Xrotation Yrotation Zrotation
							End Site
							{
								OFFSET 0 0 0
							}
						}
					}
				}
			}
		}
	}
	JOINT Spine_virtual
	{
		OFFSET 0.000000 0.000000 0.000000
		CHANNELS 3 Xrotation Yrotation Zrotation
		JOINT Spine
		{
			OFFSET 0.000000 6.876099 0.125700
			CHANNELS 3 Xrotation Yrotation Zrotation
			JOINT Spine1
			{
				OFFSET 0.000000 5.730043 0.104720
				CHANNELS 3 Xrotation Yrotation Zrotation
				JOINT Spine1_split
				{
					OFFSET 0.000000 5.730043 0.104720
					CHANNELS 3 Xrotation Yrotation Zrotation
					JOINT Spine2
					{
						OFFSET 0.000000 5.730043 0.104720
						CHANNELS 3 Xrotation Yrotation Zrotation
						JOINT Neck_virtual
						{
							OFFSET 0.000000 0.000000 0.000000
							CHANNELS 3 Xrotation Yrotation Zrotation
							JOINT Neck
							{
								OFFSET 0.000000 10.314075 0.188496
								CHANNELS 3 Xrotation Yrotation Zrotation
								JOINT Head
								{
									OFFSET 0.000000 7.643700 -2.377400
									CHANNELS 3 Xrotation Yrotation Zrotation
									JOINT HeadTop_End
									{
										OFFSET 0.000000 43.788605 -13.619600
										CHANNELS 3 Xrotation Yrotation Zrotation
										End Site
										{
											OFFSET 0 0 0
										}
									}
								}
							}
						}
						JOINT LeftShoulder_virtual
						{
							OFFSET 0.000000 0.000000 0.000000
							CHANNELS 3 Xrotation Yrotation Zrotation
							JOINT LeftShoulder
							{
								OFFSET 2.196100 4.412489 0.087492
								CHANNELS 3 Xrotation Yrotation Zrotation
								JOINT LeftShoulder_split
								{
									OFFSET 2.196100 4.412489 0.087492
									CHANNELS 3 Xrotation Yrotation Zrotation
									JOINT LeftArm
									{
										OFFSET 8.771219 -2.981674 -0.026999
										CHANNELS 3 Xrotation Yrotation Zrotation
										JOINT LeftForeArm
										{
											OFFSET 8.512804 0.000000 -0.000000
											CHANNELS 3 Xrotation Yrotation Zrotation
											JOINT LeftHand
											{
												OFFSET 18.484802 0.000000 -0.000000
												CHANNELS 3 Xrotation Yrotation Zrotation
												End Site
												{
													OFFSET 0 0 0
												}
											}
										}
									}
								}
							}
						}
						JOINT RightShoulder_virtual
						{
							OFFSET 0.000000 0.000000 0.000000
							CHANNELS 3 Xrotation Yrotation Zrotation
							JOINT RightShoulder
							{
								OFFSET -2.196100 4.412496 0.070690
								CHANNELS 3 Xrotation Yrotation Zrotation
								JOINT RightShoulder_split
								{
									OFFSET -2.196100 4.412496 0.070690
									CHANNELS 3 Xrotation Yrotation Zrotation
									JOINT RightArm
									{
										OFFSET -8.771282 -2.981682 -0.094208
										CHANNELS 3 Xrotation Yrotation Zrotation
										JOINT RightForeArm
										{
											OFFSET -8.494598 0.000000 0.000000
											CHANNELS 3 Xrotation Yrotation Zrotation
											JOINT RightHand
											{
												OFFSET -18.483803 0.000000 0.000001
												CHANNELS 3 Xrotation Yrotation Zrotation
												End Site
												{
													OFFSET 0 0 0
												}
											}
										}
									}
								}
							}
						}
					}
				}
			}
		}
	}
}
MOTION
Frames: 11
Frame Time: 0.03333333
3.690106 34.385719 -1.550817 0.000000 0.000000 0.000000 -0.999640 -21.169838 -1.398220 -4.202924 5.774991 -0.448136 16.510087 9.284573 1.767804 -14.464001 19.990541 -2.245108 -1.617988 0.397834 -1.704782 0.000000 0.000000 0.000000 -0.280408 -20.855339 -1.448224 -5.886767 -8.496078 -10.280408 8.696590 5.341399 1.443003 -11.370002 -4.341075 8.370513 -6.835608 -0.344908 -0.614549 0.000000 0.000000 0.000000 -0.585577 -21.478756 -2.163842 3.990111 1.212777 -1.508203 0.533674 -0.011400 0.131571 1.089957 0.218662 0.256422 0.000000 0.000000 0.000000 1.279834 0.414723 -0.292081 1.099899 -1.019750 2.217529 13.241627 10.316755 5.570225 0.000000 0.000000 0.000000 0.828196 0.444923 -0.175835 2.237043 -2.937773 -11.708555 -0.533935 -1.083822 -1.884224 -6.779854 -19.061989 -55.998330 0.418793 -14.194623 0.412612 0.000000 0.000000 0.000000 0.915316 0.465825 -0.098348 2.388372 -2.660764 16.615470 -0.678878 2.935452 -3.045037 7.193957 2.300719 65.688654 1.834763 20.198739 1.461167 0.000000 0.000000 0.000000 
3.912784 34.383698 -1.431204 0.000000 0.000000 0.000000 -0.970939 -22.037134 -1.580093 -4.172427 5.948364 -0.684040 16.372899 9.303474 1.745419 -14.600506 20.724722 -1.911197 -1.666553 0.405169 -1.636473 0.000000 0.000000 0.000000 -0.281180 -21.651459 -1.635291 -6.039084 -8.570151 -10.163965 8.619215 5.595637 1.428349 -11.637413 -4.229509 8.306802 -6.679447 -0.367343 -0.612554 0.000000 0.000000 0.000000 -0.568485 -22.280644 -2.363811 3.750336 0.749623 -1.627531 0.485667 -0.099174 0.110999 1.151424 0.230683 0.247046 0.000000 0.000000 0.000000 1.252644 0.320087 -0.315669 1.092031 -1.113784 2.310725 13.519266 11.249336 5.886636 0.000000 0.000000 0.000000 0.784406 0.363049 -0.195372 2.188790 -3.170760 -11.607804 -0.637028 -1.014661 -1.892510 -7.086305 -20.703389 -56.268840 0.420210 -14.728342 0.423586 0.000000 0.000000 0.000000 0.881760 0.380980 -0.144657 2.448456 -3.219195 16.965222 -0.704704 2.845573 -3.106243 6.780263 2.954556 66.212168 1.850456 20.711789 1.467791 0.000000 0.000000 0.000000 
4.121379 34.386265 -1.314470 0.000000 0.000000 0.000000 -0.918009 -22.894803 -1.762005 -4.173108 6.146065 -0.861074 16.221211 9.307992 1.749076 -14.659922 21.407208 -1.603445 -1.723866 0.411463 -1.565212 0.000000 0.000000 0.000000 -0.266346 -22.429078 -1.827128 -6.188828 -8.663216 -10.021625 8.460662 5.729093 1.401991 -11.803496 -4.130026 8.173326 -6.454204 -0.385132 -0.610247 0.000000 0.000000 0.000000 -0.526039 -23.062721 -2.559136 3.532519 0.261113 -1.776587 0.435993 -0.180882 0.073801 1.216773 0.255274 0.241740 0.000000 0.000000 0.000000 1.221726 0.227674 -0.349810 1.095125 -1.204949 2.403581 13.798806 12.109008 6.290022 0.000000 0.000000 0.000000 0.744644 0.287942 -0.224191 2.127029 -3.455922 -11.435958 -0.727249 -0.946833 -1.888478 -7.250452 -22.441225 -56.554492 0.445813 -15.623699 0.448465 0.000000 0.000000 0.000000 0.862666 0.300010 -0.208391 2.509649 -3.807798 17.352797 -0.738436 2.723020 -3.124748 6.235954 3.705624 66.663493 1.870102 21.241728 1.472629 0.000000 0.000000 0.000000 
4.311787 34.397976 -1.204287 0.000000 0.000000 0.000000 -0.820059 -23.683495 -1.933698 -4.223692 6.345339 -0.984295 16.039424 9.294372 1.781844 -14.605786 22.013683 -1.325250 -1.792611 0.417527 -1.499983 0.000000 0.000000 0.000000 -0.196814 -23.156442 -2.006425 -6.323756 -8.731524 -9.880331 8.174907 5.757129 1.357817 -11.761462 -4.041848 8.094049 -6.312763 -0.398395 -0.609100 0.000000 0.000000 0.000000 -0.432853 -23.786154 -2.735670 3.322497 -0.249397 -1.972931 0.380689 -0.259609 0.015570 1.243839 0.284811 0.258255 0.000000 0.000000 0.000000 1.179792 0.135184 -0.400006 1.105003 -1.296046 2.521971 14.093133 12.882707 6.778148 0.000000 0.000000 0.000000 0.704869 0.218219 -0.266425 2.052804 -3.780567 -11.178338 -0.800755 -0.874370 -1.867443 -7.253173 -24.242401 -56.883294 0.507175 -16.940539 0.487228 0.000000 0.000000 0.000000 0.852398 0.220746 -0.293897 2.574270 -4.427792 17.761635 -0.775573 2.568902 -3.108123 5.632066 4.517960 67.027836 1.890406 21.756398 1.485135 0.000000 0.000000 0.000000 
4.484153 34.420837 -1.098576 0.000000 0.000000 0.000000 -0.660275 -24.359294 -2.092508 -4.356108 6.531628 -1.048986 15.813689 9.267445 1.842579 -14.436792 22.521826 -1.085803 -1.846741 0.423850 -1.454839 0.000000 0.000000 0.000000 -0.041646 -23.820594 -2.164153 -6.423796 -8.734300 -9.730679 7.711146 5.689355 1.290614 -11.522269 -3.970913 8.128063 -6.281188 -0.408588 -0.605476 0.000000 0.000000 0.000000 -0.266946 -24.423510 -2.888383 3.109982 -0.774832 -2.231956 0.317878 -0.341895 -0.060631 1.260369 0.321539 0.304618 0.000000 0.000000 0.000000 1.125911 0.039905 -0.466736 1.099818 -1.390771 2.688692 14.402224 13.555898 7.348224 0.000000 0.000000 0.000000 0.664794 0.147739 -0.321936 1.969284 -4.135168 -10.832590 -0.860474 -0.778324 -1.856716 -7.127099 -26.039411 -57.273236 0.596341 -18.615202 0.526870 0.000000 0.000000 0.000000 0.843509 0.137397 -0.397436 2.644513 -5.067316 18.173996 -0.798741 2.390991 -3.067468 5.056434 5.343835 67.318686 1.912903 22.269441 1.508450 0.000000 0.000000 0.000000 
4.637230 34.453926 -0.998207 0.000000 0.000000 0.000000 -0.424710 -24.911119 -2.238815 -4.580826 6.693963 -1.043597 15.556620 9.221455 1.924458 -14.148907 22.922057 -0.920163 -1.861978 0.431047 -1.429086 0.000000 0.000000 0.000000 0.198467 -24.396345 -2.304404 -6.472306 -8.651422 -9.554970 7.097569 5.532784 1.201161 -11.197832 -3.915243 8.254892 -6.275719 -0.414478 -0.588822 0.000000 0.000000 0.000000 -0.021679 -24.973238 -3.021248 2.901603 -1.302062 -2.559944 0.247366 -0.434200 -0.148698 1.258369 0.353846 0.359316 0.000000 0.000000 0.000000 1.062675 -0.061213 -0.544089 1.076558 -1.487970 2.916657 14.719807 14.109375 7.989006 0.000000 0.000000 0.000000 0.624804 0.068509 -0.387601 1.880182 -4.512985 -10.422229 -0.918723 -0.637513 -1.860490 -6.888376 -27.760380 -57.713220 0.690003 -20.502479 0.555242 0.000000 0.000000 0.000000 0.831885 0.044346 -0.511900 2.721555 -5.705608 18.564026 -0.798829 2.222201 -3.012062 4.593517 6.136604 67.558241 1.941228 22.808657 1.539760 0.000000 0.000000 0.000000 
4.772466 34.495094 -0.906342 0.000000 0.000000 0.000000 -0.112482 -25.368863 -2.376294 -4.907173 6.814756 -0.958187 15.305559 9.152620 2.018846 -13.760184 23.221163 -0.851390 -1.837629 0.441375 -1.415197 0.000000 0.000000 0.000000 0.509616 -24.878206 -2.435489 -6.466646 -8.486568 -9.329921 6.462321 5.273721 1.088448 -10.914431 -3.886500 8.387781 -6.174766 -0.414291 -0.541631 0.000000 0.000000 0.000000 0.293811 -25.453308 -3.144147 2.709706 -1.808423 -2.956948 0.177011 -0.536406 -0.239524 1.246630 0.374673 0.415081 0.000000 0.000000 0.000000 0.996021 -0.167815 -0.624882 1.034493 -1.585577 3.198830 15.035651 14.533796 8.683024 0.000000 0.000000 0.000000 0.589149 -0.022458 -0.457522 1.787799 -4.899586 -9.970527 -1.004466 -0.493773 -1.881292 -6.577009 -29.295931 -58.166028 0.743831 -22.427293 0.557920 0.000000 0.000000 0.000000 0.815892 -0.059547 -0.627548 2.802853 -6.314388 18.909633 -0.799419 2.071626 -2.953251 4.288463 6.864661 67.764882 1.974851 23.395467 1.572379 0.000000 0.000000 0.000000 
4.889521 34.539795 -0.821930 0.000000 0.000000 0.000000 0.254606 -25.766603 -2.516416 -5.308646 6.901513 -0.798078 15.084676 9.083185 2.126935 -13.344520 23.443542 -0.846809 -1.775200 0.454834 -1.402012 0.000000 0.000000 0.000000 0.854148 -25.293244 -2.576270 -6.448079 -8.262238 -9.048781 5.902236 4.915246 0.959707 -10.728895 -3.892559 8.505891 -5.972777 -0.406561 -0.470838 0.000000 0.000000 0.000000 0.661691 -25.886074 -3.270717 2.559807 -2.266810 -3.414950 0.112901 -0.643021 -0.325696 1.247067 0.385139 0.434598 0.000000 0.000000 0.000000 0.932091 -0.275678 -0.701785 0.981472 -1.673714 3.516125 15.332547 14.829094 9.394745 0.000000 0.000000 0.000000 0.562241 -0.123544 -0.525775 1.698129 -5.284278 -9.516452 -1.105529 -0.340986 -1.913242 -6.257782 -30.577777 -58.584076 0.738613 -24.242541 0.531888 0.000000 0.000000 0.000000 0.800171 -0.167810 -0.735040 2.883941 -6.860768 19.192668 -0.811857 1.951510 -2.893218 4.157771 7.491876 67.946708 2.017841 24.036018 1.598806 0.000000 0.000000 0.000000 
4.984862 34.581165 -0.749537 0.000000 0.000000 0.000000 0.660064 -26.122972 -2.662031 -5.764591 6.968120 -0.589339 14.918455 9.034886 2.245571 -12.985656 23.620329 -0.855116 -1.702152 0.470081 -1.379782 0.000000 0.000000 0.000000 1.210782 -25.653770 -2.734409 -6.459070 -8.004607 -8.734299 5.481504 4.485403 0.812887 -10.666883 -3.926196 8.652446 -5.784254 -0.394714 -0.390333 0.000000 0.000000 0.000000 1.059932 -26.285568 -3.406605 2.477364 -2.644064 -3.918411 0.065728 -0.739828 -0.403903 1.237994 0.409097 0.427437 0.000000 0.000000 0.000000 0.874761 -0.374819 -0.770792 0.930879 -1.753314 3.836927 15.592705 15.009027 10.079579 0.000000 0.000000 0.000000 0.548760 -0.222473 -0.589141 1.613246 -5.652478 -9.096864 -1.223715 -0.228057 -1.917381 -5.926485 -31.545673 -58.904931 0.680557 -25.881728 0.490134 0.000000 0.000000 0.000000 0.789168 -0.267878 -0.831470 2.954879 -7.317985 19.404518 -0.819831 1.860761 -2.844843 4.180899 8.001132 68.095989 2.065936 24.683516 1.615184 0.000000 0.000000 0.000000 
5.059654 34.617134 -0.689453 0.000000 0.000000 0.000000 1.083663 -26.447225 -2.812382 -6.264557 7.029108 -0.361114 14.806329 9.012126 2.374944 -12.743368 23.771094 -0.851849 -1.655406 0.486294 -1.340619 0.000000 0.000000 0.000000 1.569525 -25.981702 -2.907742 -6.505744 -7.738387 -8.399062 5.207688 3.989915 0.637948 -10.733138 -3.997938 8.826109 -5.695872 -0.386118 -0.311088 0.000000 0.000000 0.000000 1.476989 -26.661529 -3.547803 2.483552 -2.913768 -4.449152 0.040060 -0.808559 -0.477140 1.234927 0.440350 0.398418 0.000000 0.000000 0.000000 0.827171 -0.451080 -0.835321 0.884965 -1.818595 4.126568 15.797782 15.087855 10.697675 0.000000 0.000000 0.000000 0.551240 -0.303000 -0.650230 1.536428 -5.994930 -8.738242 -1.339971 -0.140846 -1.882344 -5.616599 -32.173992 -59.094769 0.591460 -27.318836 0.451052 0.000000 0.000000 0.000000 0.788698 -0.342154 -0.917761 3.009741 -7.666737 19.545708 -0.829690 1.793999 -2.806652 4.332728 8.381312 68.201870 2.118555 25.273730 1.617957 0.000000 0.000000 0.000000 
5.114374 34.645142 -0.643457 0.000000 0.000000 0.000000 1.509521 -26.728822 -2.959644 -6.799385 7.090851 -0.142947 14.753726 9.015819 2.513791 -12.630759 23.906282 -0.827418 -1.654621 0.501105 -1.283823 0.000000 0.000000 0.000000 1.926660 -26.289909 -3.084403 -6.595052 -7.496073 -8.064914 5.041578 3.418886 0.430851 -10.918047 -4.125598 8.990039 -5.691309 -0.385876 -0.241509 0.000000 0.000000 0.000000 1.897021 -27.003334 -3.683441 2.592953 -3.055538 -4.991569 0.036270 -0.833268 -0.551387 1.241697 0.484313 0.371367 0.000000 0.000000 0.000000 0.790652 -0.490014 -0.901545 0.838567 -1.873186 4.358714 15.934090 15.079741 11.209646 0.000000 0.000000 0.000000 0.566087 -0.348061 -0.713859 1.469626 -6.307929 -8.461876 -1.421434 -0.069802 -1.798739 -5.357727 -32.493256 -59.155292 0.509375 -28.576279 0.430749 0.000000 0.000000 0.000000 0.805074 -0.376067 -1.001298 3.046396 -7.907814 19.626907 -0.836219 1.748698 -2.798890 4.564190 8.634700 68.264093 2.176506 25.750238 1.607267 0.000000 0.000000 0.000000 
